<svg xmlns="http://www.w3.org/2000/svg">
    <symbol id="folder" viewBox="0 0 576 512" fill="none">
        <path d="M384 480h48c11.4 0 21.9-6 27.6-15.9l112-192c5.8-9.9 5.8-22.1 .1-32.1S555.5 224 544 224H144c-11.4 0-21.9 6-27.6 15.9L48 357.1V96c0-8.8 7.2-16 16-16H181.5c4.2 0 8.3 1.7 11.3 4.7l26.5 26.5c21 21 49.5 32.8 79.2 32.8H416c8.8 0 16 7.2 16 16v32h48V160c0-35.3-28.7-64-64-64H298.5c-17 0-33.3-6.7-45.3-18.7L226.7 50.7c-12-12-28.3-18.7-45.3-18.7H64C28.7 32 0 60.7 0 96V416c0 35.3 28.7 64 64 64H87.7 384z" fill="currentColor"/>
    </symbol>
    <symbol id="picture" viewBox="0 0 512 512" fill="none">
        <path d="M448 80c8.8 0 16 7.2 16 16V415.8l-5-6.5-136-176c-4.5-5.9-11.6-9.3-19-9.3s-14.4 3.4-19 9.3L202 340.7l-30.5-42.7C167 291.7 159.8 288 152 288s-15 3.7-19.5 10.1l-80 112L48 416.3l0-.3V96c0-8.8 7.2-16 16-16H448zM64 32C28.7 32 0 60.7 0 96V416c0 35.3 28.7 64 64 64H448c35.3 0 64-28.7 64-64V96c0-35.3-28.7-64-64-64H64zm80 192a48 48 0 1 0 0-96 48 48 0 1 0 0 96z" fill="currentColor"/>
    </symbol>
    <symbol id="fingerprint" viewBox="0 0 150 148">
        <path d="M14.0598 74.9854C14.0598 41.3298 41.3298 14.0598 74.9854 14.0598C93.4681 14.0598 110.018 22.2906 121.207 35.2958C123.726 38.2542 128.178 38.5765 131.107 36.0574C134.036 33.5384 134.388 29.0861 131.869 26.157C118.131 10.1347 97.7446 0 74.9854 0C33.5677 0 0 33.5677 0 74.9854V86.7018C0 90.5975 3.13415 93.7317 7.02988 93.7317C10.9256 93.7317 14.0598 90.5975 14.0598 86.7018V74.9854ZM148.36 59.4903C147.569 55.6825 143.82 53.2513 140.041 54.0715C136.262 54.8916 133.802 58.6116 134.622 62.3902C135.472 66.4616 135.94 70.6796 135.94 75.0147V86.7311C135.94 90.6268 139.074 93.761 142.97 93.761C146.866 93.761 150 90.6268 150 86.7311V74.9854C150 69.6837 149.443 64.4991 148.389 59.4903H148.36ZM74.9854 23.4329C69.42 23.4329 64.0305 24.3117 59.0217 25.952C54.5694 27.4165 53.5442 32.894 56.5905 36.4675C58.6702 38.8987 62.0973 39.6309 65.2021 38.7815C68.307 37.932 71.5876 37.4927 74.9854 37.4927C95.6942 37.4927 112.478 54.2765 112.478 74.9854V82.2789C112.478 89.6602 112.039 97.0123 111.189 104.335C110.691 108.612 113.943 112.478 118.278 112.478C121.734 112.478 124.692 109.959 125.103 106.532C126.069 98.5062 126.567 90.4218 126.567 82.3081V74.9854C126.567 46.5144 103.486 23.4329 75.0147 23.4329H74.9854ZM44.1418 43.5559C41.4763 40.4511 36.7311 40.2168 34.2121 43.4388C27.4458 52.1383 23.4329 63.0932 23.4329 74.9854V82.2789C23.4329 89.3673 22.6714 96.4558 21.1482 103.339C20.1523 107.909 23.4622 112.478 28.1488 112.478C31.2244 112.478 33.9777 110.428 34.6514 107.411C36.5261 99.1799 37.4927 90.7733 37.4927 82.2789V74.9854C37.4927 67.0182 39.9824 59.6368 44.2004 53.5735C46.3093 50.5272 46.5436 46.3679 44.1418 43.5559ZM74.9854 46.8658C59.461 46.8658 46.8658 59.461 46.8658 74.9854V82.2789C46.8658 92.7944 45.5185 103.222 42.8237 113.357C41.7106 117.545 44.7862 121.851 49.1213 121.851C51.9039 121.851 54.3644 120.035 55.0967 117.34C58.1722 105.917 59.754 94.1418 59.754 82.2789V74.9854C59.754 66.5788 66.5788 59.754 74.9854 59.754C83.3919 59.754 90.2168 66.5788 90.2168 74.9854V82.2789C90.2168 92.9115 89.1916 103.486 87.1705 113.884C86.3796 117.955 89.4259 121.851 93.556 121.851C96.5436 121.851 99.1213 119.801 99.7071 116.872C101.963 105.507 103.105 93.9367 103.105 82.2789V74.9854C103.105 59.461 90.5097 46.8658 74.9854 46.8658ZM82.0152 74.9854C82.0152 71.0896 78.8811 67.9555 74.9854 67.9555C71.0896 67.9555 67.9555 71.0896 67.9555 74.9854V82.2789C67.9555 99.8243 64.7335 117.223 58.4359 133.597L56.7077 138.079C55.3017 141.711 57.1178 145.782 60.7499 147.159C64.382 148.535 68.4534 146.749 69.8301 143.117L71.5583 138.635C78.471 120.65 82.0152 101.552 82.0152 82.2789V74.9854Z" />
    </symbol>
    <symbol id="cloud" viewBox="0 0 165 214">
        <path d="M43.4659 116.42C33.4659 116.42 24.9716 112.926 17.983 105.938C10.9943 98.9489 7.5 90.4545 7.5 80.4545C7.5 71.5909 10.3409 63.8068 16.0227 57.1023C21.7045 50.3977 28.9205 46.3636 37.6705 45C39.9432 33.9773 45.2841 24.9716 53.6932 17.983C62.1023 10.9943 71.8182 7.5 82.8409 7.5C95.5682 7.5 106.307 12.1307 115.057 21.392C123.807 30.6534 128.182 41.7614 128.182 54.7159V58.8068C136.364 58.5795 143.295 61.2216 148.977 66.733C154.659 72.2443 157.5 79.2046 157.5 87.6136C157.5 95.4546 154.659 102.216 148.977 107.898C143.295 113.58 136.534 116.42 128.693 116.42M47.5 153L86 114.5M86 114.5L124.5 153M86 114.5V206" fill="none" stroke-width="15" stroke-linecap="round" stroke-linejoin="round" />
    </symbol>
    <symbol id="flash" viewBox="0 0 151 200">
        <path d="M117.585 14.4913L117.58 14.5043L87.5472 84.6064C86.5545 86.9236 86.7923 89.5845 88.1802 91.6889C89.5681 93.7934 91.9203 95.0598 94.4412 95.0598H137.986C140.089 95.0598 141.954 96.3605 142.69 98.3022C143.398 100.171 142.874 102.386 141.278 103.794C141.276 103.796 141.274 103.798 141.272 103.8L41.3346 191.245C41.3317 191.248 41.3288 191.25 41.3258 191.253C39.5185 192.813 36.9435 192.906 35.0772 191.549C33.1773 190.167 32.5015 187.665 33.4146 185.545L33.4196 185.533L63.4522 115.47C64.4455 113.153 64.208 110.492 62.8202 108.387C61.4324 106.282 59.0799 105.015 56.5588 105.015H13.0135C10.9757 105.015 9.05545 103.7 8.3104 101.734C7.60227 99.8657 8.12632 97.6504 9.72138 96.242C9.72351 96.2402 9.72565 96.2383 9.72779 96.2364L109.665 8.79095C109.669 8.78815 109.672 8.78536 109.675 8.78258C111.482 7.22281 114.057 7.13039 115.923 8.48748C117.823 9.86924 118.498 12.3711 117.585 14.4913Z" fill="none" stroke-width="15" stroke-linejoin="round" />
    </symbol>
    <symbol id="gear" viewBox="0 0 151 160">
        <path d="M138.68 45.6768C140.272 48.554 141.66 51.5093 142.828 54.568C142.856 54.6742 142.886 54.7801 142.919 54.8856L129.588 67.0157C127.77 68.6703 126.878 71.1111 127.201 73.5483C127.502 75.8202 127.664 78.1328 127.664 80.458C127.664 82.7833 127.502 85.0958 127.201 87.3678C126.878 89.805 127.77 92.2458 129.588 93.9004L142.909 106.022C141.718 109.186 140.292 112.239 138.649 115.208L137.253 117.613C135.478 120.566 133.493 123.373 131.319 126.032L114.185 120.588C111.846 119.844 109.29 120.293 107.343 121.789C103.693 124.595 99.668 126.932 95.384 128.695C93.1086 129.631 91.437 131.623 90.9109 134.027L87.0686 151.579C83.3086 152.184 79.4391 152.5 75.4845 152.5C71.5298 152.5 67.6603 152.184 63.9004 151.579L60.058 134.027C59.5319 131.623 57.8603 129.631 55.5849 128.695C51.3009 126.932 47.2763 124.595 43.6256 121.789C41.6745 120.29 39.1119 119.842 36.7682 120.593L19.6806 126.063C17.5065 123.403 15.5215 120.597 13.7466 117.644L12.3515 115.24C10.7083 112.27 9.28245 109.217 8.09075 106.053L21.4118 93.9315C23.2271 92.2796 24.1194 89.8441 23.8007 87.4104C23.4978 85.0976 23.3358 82.7816 23.3358 80.458C23.3358 78.1328 23.4981 75.8203 23.7992 73.5483C24.1222 71.1111 23.2302 68.6703 21.4118 67.0157L8.09075 54.8945C9.28244 51.7305 10.7083 48.6774 12.3514 45.7077L13.7466 43.3032C15.5216 40.3501 17.5067 37.5436 19.6809 34.8836L36.8146 40.3282C39.1545 41.0718 41.7101 40.623 43.6567 39.1268C47.3074 36.3207 51.332 33.9837 55.616 32.2213C57.8914 31.2852 59.563 29.2927 60.0891 26.8892L63.9321 9.33455C67.675 8.70394 71.5436 8.38499 75.5155 8.38499C79.4702 8.38499 83.3397 8.70119 87.0997 9.30644L90.942 26.8581C91.4681 29.2616 93.1397 31.2542 95.4151 32.1902C99.6991 33.9527 103.724 36.2896 107.374 39.0957C109.321 40.5919 111.877 41.0407 114.216 40.2972L131.35 34.8525C133.524 37.5125 135.51 40.3191 137.285 43.2722L138.68 45.6768ZM63.9769 9.13375C63.9769 9.13385 63.9767 9.13449 63.9762 9.13563C63.9766 9.13425 63.9769 9.13364 63.9769 9.13375ZM87.0542 9.10267C87.0542 9.10264 87.0545 9.10327 87.0549 9.10459L87.0542 9.10267ZM75.5155 112.825C84.0997 112.825 92.3323 109.415 98.4022 103.345C104.472 97.2747 107.882 89.0422 107.882 80.458C107.882 71.8739 104.472 63.6413 98.4022 57.5714C92.3323 51.5015 84.0997 48.0915 75.5155 48.0915C66.9314 48.0915 58.6988 51.5015 52.6289 57.5714C46.559 63.6413 43.149 71.8739 43.149 80.458C43.149 89.0422 46.559 97.2747 52.6289 103.345C58.6988 109.415 66.9314 112.825 75.5155 112.825Z" fill="none" stroke-width="15" stroke-linejoin="round" />
    </symbol>
</svg>